<?xml version="1.0" encoding="utf-8"?>
<!-- Generator: Adobe Illustrator 19.0.0, SVG Export Plug-In . SVG Version: 6.00 Build 0)  -->
<svg version="1.1" id="Layer_1" xmlns="http://www.w3.org/2000/svg" xmlns:xlink="http://www.w3.org/1999/xlink" x="0px" y="0px"
	 viewBox="0 0 612 792" style="enable-background:new 0 0 612 792;" xml:space="preserve">
<style type="text/css">
	.st0{fill:#FFFFFF;}
</style>
<path class="st0" d="M475.4,185.8c24.9,59.4,27.3,131.5-4,188.5c-12.8,20.1-24.1,43.3-44.1,56.2c-17.6-20,16.8-32.9,19.3-52.1
	c38.5-56.1,33.7-142,5.6-199.7c-28.1-43.3-80.2-43.3-125.1-52.1c-68.2,1.6-135.6,15.3-175.7,73c-2.4,37.7-20,80.2,0,115.5
	c-1.6,7.2-5.6,12-12.8,13.6c-16.1-20-13.7-47.3-13.7-73c5.6-46.5,11.2-103.5,65-119.5C282.9,100,417.6,85.6,475.4,185.8z"/>
<path class="st0" d="M282.9,301.4c-4-12-23.3-8.8-36.9-9.6c-6.4,1.6-4,12.8-1.6,17.6l38.5-2.4V301.4z"/>
<path class="st0" d="M404,290.1c-16.1,3.2-34.5,0.8-48.1,9.6c1.6,5.6,2.4,11.2,7.2,15.2C374.3,301.3,413.6,320.6,404,290.1z"/>
<path class="st0" d="M359.9,351.9c-20.9-11.2-48.9-4-73.8-6.4c-12.8-2.4-14.4,13.6-12.8,23.3c17.6,15.2,45.7,12,69,9.6
	C354.3,377.5,362.3,363.9,359.9,351.9z M346.3,363.1c-16,6.4-38.5,4-56.1,1.6c-2.4-3.2-1.6-7.2,2.4-9.6c18.4-1.6,34.5,4.8,53.7,2.4
	V363.1z"/>
<path class="st0" d="M371.1,430.5c13.6,29.7,35.3,58.5,53.8,85c41.7-28.9,69.8-85.8,125.1-85v-13.6c-8.8-13.6-25.7,1.6-36.1-1.6
	c-1.6-9.6,1.6-16.8,1.6-24.9c-5.6-5.6,4-21.7-9.6-17.6c-23.3,4-3.2,31.3-11.2,46.5l-61.8,59.4c-15.2-24.9-32.9-50.5-36.9-77
	c16.1-16.8,35.3-31.3,42.5-53.7c3.2-43.3,7.2-101.1-32.9-133.1c-16-11.2-32.9-21.7-52.1-26.5c-52.9-4-107.5-8-137.9,40.1
	c-29.7,40.1-44.9,105.1-16,150c4.8,12.8,22.5,21.7,25.7,32.9L174.6,469c-20.1-8.8-29.7-32.1-44.1-48.1l4-44.1l-15.2-2.4l-9.6,46.5
	l-44.9,4c-4.8,5.6,1.6,11.2,2.4,16.8l52.1,0c5.6,12.8,15.3,20,26.5,28.9c15.2,4,21.6,31.3,40.9,19.2c21.6-24.1,40.1-51.3,65-73
	c7.2,0.8,15.2-1.6,21.6,2.4c5.6,36.9,3.2,80.2,9.6,115.5c-37.7-10.4-77-20-115.5-21.6c-28.8,31.3-37.7,102.7-98.6,89V623
	c16.8-3.2,34.5-8,50.5-5.6c-4,16-24.1,20.8-25.7,38.5l17.7,7.2l23.3-38.5c10.4,7.2,3.2,20.9,13.6,27.3l15.2-9.6l-17.6-36.9
	c9.6-23.3,20-48.1,40.9-65c16,8.8,39.3,9.6,57.8,9.6c40.9,14.4,81.8,11.2,126.7,16.8c20.1,3.2,40.9,2.4,59.3,8
	c-1.6,35.3-41.7,42.5-60.9,67.4c-2.4,5.6,2.4,8,5.6,11.2c15.2,13.6,22.5-15.2,36.1-16.8c13.6,12-8,30.5-3.2,45.7
	c40.1,13.6,8-39.3,34.5-41.7l16.8,28.9c9.6,0.8,16.1-4,23.3-8l-26.5-28.9c-17.6-24.9,8-53.7,7.2-82.6c-32.1-12.8-75.4,0.8-107.5-12
	l-13.6-117.1l5.6-5.6C359.9,408,371.1,418.4,371.1,430.5z M309.4,536.3c2.4-39.3-11.2-74.6-5.6-113.9l15.2,0
	c8.8,36.1,6.4,76.2,9.7,113.9H309.4z M315,407.2c-37.7-4-87.4-0.8-99.5-48.1c-11.2-31.3-21.7-72.2,1.6-101.9
	c16-27.3,42.5-44.9,71.4-52.1c44.1,2.4,96.2-3.2,119.5,42.5c20.1,24.9,16.1,64.2,11.2,94.6C408,392,354.3,396,315,407.2z"/>
</svg>
