<?xml version="1.0" encoding="utf-8"?>
<!-- Generator: Adobe Illustrator 17.0.0, SVG Export Plug-In . SVG Version: 6.00 Build 0)  -->
<!DOCTYPE svg PUBLIC "-//W3C//DTD SVG 1.1//EN" "http://www.w3.org/Graphics/SVG/1.1/DTD/svg11.dtd">
<svg version="1.1" id="Layer_1" xmlns="http://www.w3.org/2000/svg" xmlns:xlink="http://www.w3.org/1999/xlink" x="0px" y="0px"
	 width="136.28px" height="20.594px" viewBox="0 0 136.28 20.594" enable-background="new 0 0 136.28 20.594" xml:space="preserve">
<g enable-background="new    ">
	<path d="M19.905,17.104H17.72l6.03-14.042h0.121l6.05,14.042h-2.286l-0.79-1.922c0,0-6.13,0-6.15,0L19.905,17.104z M23.79,7.817
		l-2.286,5.442h4.532C26.056,13.259,23.79,7.817,23.79,7.817z"/>
	<path d="M34.008,17.104h-2.165V3.345h3.521c3.783,0,5.867,2.084,5.867,5.261c0,3.156-2.104,5.24-5.867,5.24h-1.356V17.104z
		 M35.283,11.924c2.65,0,3.723-1.254,3.723-3.318c0-2.084-1.092-3.338-3.723-3.338h-1.275v6.656H35.283z"/>
	<path d="M45.682,17.104h-2.165V3.345h3.521c3.783,0,5.867,2.084,5.867,5.261c0,3.156-2.104,5.24-5.867,5.24h-1.356V17.104z
		 M46.957,11.924c2.65,0,3.723-1.254,3.723-3.318c0-2.084-1.092-3.338-3.723-3.338h-1.275v6.656H46.957z"/>
	<path d="M55.192,3.345h2.165v11.836h6.07v1.922h-8.235V3.345z"/>
	<path d="M65.613,3.345h8.762v1.923h-6.597v5.705h5.848v1.882h-5.848v2.327h6.88v1.922h-9.045V3.345z"/>
	<path d="M81.982,17.104h-2.186l6.03-14.042h0.121l6.05,14.042h-2.286l-0.79-1.922c0,0-6.13,0-6.15,0L81.982,17.104z M85.867,7.817
		l-2.286,5.442h4.532C88.132,13.259,85.867,7.817,85.867,7.817z"/>
	<path d="M97.601,3.345h3.885c4.492,0,7.243,2.812,7.243,6.88c0,4.066-2.731,6.878-7.243,6.878h-3.885V3.345z M101.365,15.182
		c3.561,0,5.119-2.044,5.119-4.957c0-2.914-1.559-4.957-5.119-4.957h-1.599v9.914H101.365z"/>
	<path d="M111.159,17.104h-2.186l6.029-14.042h0.122l6.05,14.042h-2.287l-0.789-1.922c0,0-6.131,0-6.15,0L111.159,17.104z
		 M115.043,7.817l-2.287,5.442h4.533C117.309,13.259,115.043,7.817,115.043,7.817z"/>
	<path d="M119.798,3.345h2.388l3.905,7.183l3.844-7.183h2.267l-5.059,9.368v4.391h-2.165v-4.37L119.798,3.345z"/>
</g>
<g>
	<g id="XMLID_2_">
		<g>
			<path d="M14.188,7.377c0.761,0.779,1.133,2.048,1.05,3.57c-0.079,1.432-0.561,2.9-1.324,4.026
				c-0.956,1.41-2.225,2.145-3.627,2.145c-0.536,0-1.091-0.108-1.656-0.326c-0.565,0.218-1.122,0.326-1.658,0.326
				c-1.403,0-2.671-0.735-3.628-2.145C2.583,13.847,2.1,12.38,2.022,10.947C1.938,9.424,2.31,8.157,3.07,7.377
				c1.409-1.445,2.91-1.469,3.92-1.235c0.475,0.11,0.884,0.284,1.196,0.448C7.851,5.248,6.806,4.189,6.15,3.636
				C6.007,3.515,5.99,3.302,6.11,3.159c0.121-0.144,0.334-0.161,0.477-0.041c0.331,0.28,0.751,0.676,1.146,1.17
				C7.89,3.994,8.181,3.68,8.678,3.363c0.759-0.485,2.028-0.987,2.835-0.987c0.387,0,0.657,0.115,0.802,0.343
				c0.238,0.373,0.061,0.919-0.528,1.624c-0.435,0.52-1.042,1.059-1.585,1.405c-0.486,0.31-0.928,0.469-1.313,0.469
				c-0.036,0-0.07-0.002-0.104-0.004C8.831,6.365,8.87,6.523,8.9,6.683c0.326-0.187,0.8-0.41,1.368-0.541
				C11.279,5.908,12.78,5.932,14.188,7.377z M14.562,10.909c0.071-1.31-0.242-2.426-0.86-3.059
				c-0.948-0.972-2.044-1.326-3.258-1.053C9.51,7.007,8.835,7.532,8.832,7.534c-0.12,0.09-0.289,0.092-0.413-0.005
				c-0.006-0.005-0.67-0.522-1.604-0.732C5.601,6.524,4.505,6.878,3.557,7.85c-0.618,0.633-0.931,1.749-0.86,3.059
				c0.072,1.314,0.513,2.657,1.209,3.683c0.677,0.999,2.218,2.623,4.594,1.521c0.04-0.018,0.082-0.024,0.12-0.024
				c0.071,0,0.131,0.021,0.139,0.024c2.419,1.005,3.917-0.522,4.594-1.521C14.049,13.566,14.489,12.223,14.562,10.909z
				 M11.201,3.986c0.454-0.522,0.543-0.816,0.54-0.9c-0.023-0.012-0.088-0.034-0.228-0.034c-0.592,0-1.724,0.404-2.47,0.88
				c-0.627,0.4-0.782,0.728-0.783,0.96l1.03-0.644c0.159-0.099,0.368-0.05,0.468,0.108c0.099,0.159,0.05,0.368-0.108,0.468
				L8.612,5.472c0.081,0.045,0.173,0.066,0.277,0.066c0.251,0,0.578-0.125,0.949-0.361C10.292,4.887,10.814,4.431,11.201,3.986z"/>
			<path fill="#A32131" d="M13.702,7.85c0.618,0.633,0.931,1.749,0.86,3.059c-0.072,1.314-0.513,2.657-1.209,3.683
				c-0.677,0.999-2.175,2.527-4.594,1.521c-0.008-0.003-0.068-0.024-0.139-0.024c-0.038,0-0.08,0.006-0.12,0.024
				c-2.376,1.102-3.917-0.522-4.594-1.521c-0.696-1.026-1.136-2.369-1.209-3.683c-0.071-1.31,0.242-2.426,0.86-3.059
				c0.948-0.972,2.044-1.326,3.258-1.053c0.934,0.21,1.598,0.727,1.604,0.732c0.124,0.098,0.294,0.095,0.413,0.005
				c0.003-0.002,0.677-0.527,1.611-0.737C11.658,6.524,12.754,6.878,13.702,7.85z M4.768,8.706c0.131-0.134,0.128-0.348-0.006-0.479
				c-0.133-0.13-0.348-0.128-0.479,0.006c-0.859,0.881-1.07,2.623-0.527,4.336c0.045,0.144,0.179,0.236,0.323,0.236
				c0.034,0,0.068-0.005,0.102-0.016c0.178-0.057,0.278-0.247,0.221-0.426C3.938,10.907,4.089,9.402,4.768,8.706z"/>
			<path fill="#009444" d="M11.741,3.087c0.003,0.084-0.086,0.377-0.54,0.9c-0.387,0.445-0.909,0.901-1.363,1.191
				c-0.371,0.235-0.698,0.36-0.949,0.36c-0.104,0-0.196-0.021-0.277-0.066l1.037-0.647c0.158-0.1,0.207-0.308,0.108-0.468
				c-0.1-0.158-0.308-0.207-0.468-0.108L8.26,4.893c0.001-0.233,0.156-0.56,0.783-0.96c0.746-0.476,1.878-0.88,2.47-0.88
				C11.653,3.053,11.718,3.075,11.741,3.087z"/>
			<path d="M4.761,8.227c0.134,0.131,0.137,0.345,0.006,0.479C4.089,9.402,3.938,10.907,4.4,12.364
				c0.057,0.178-0.043,0.369-0.221,0.426c-0.034,0.01-0.068,0.016-0.102,0.016c-0.144,0-0.278-0.092-0.323-0.236
				c-0.543-1.713-0.331-3.456,0.527-4.336C4.413,8.099,4.628,8.097,4.761,8.227z"/>
		</g>
	</g>
</g>
</svg>
